# xmcd
#
# Track frame offsets:
#	150
#	17973
#	20690
#	30238
#	37513
#	45693
#	47983
#	56020
#	65260
#
# Disc length: 1104 seconds
#
# Revision: 0
# Processed by: cddbd v1.5.2PL0 Copyright (c) Steve Scherf et al.
# Submitted via: EasyCDDAExtractor 11.1.0.1
#
DISCID=6b044e09
DTITLE=Else - Jeg ville ønske for dig
DYEAR=1994
DGENRE=dansk
TTITLE0=Jeg ville ønske for dig
TTITLE1=Ouverture
TTITLE2=Niels
TTITLE3=Else
TTITLE4=Clara
TTITLE5=Maj-Britt
TTITLE6=Sandal-Jørgensen
TTITLE7=Knud
TTITLE8=Jeg ville ønske for dig
EXTD=
EXTT0=
EXTT1=
EXTT2=
EXTT3=
EXTT4=
EXTT5=
EXTT6=
EXTT7=
EXTT8=
PLAYORDER=
